# xmcd
#
# Track frame offsets:
#	150
#	11198
#	22388
#	35664
#	45598
#	56139
#	66622
#	77209
#	87562
#	97519
#	107134
#	119152
#	129618
#	141282
#	151772
#	166128
#
# Disc length: 2353 seconds
#
# Revision: 0
# Processed by: cddbd v1.5.2PL0 Copyright (c) Steve Scherf et al.
# Submitted via: FairStars CD Ripper 1.70
#
DISCID=e6092f10
DTITLE=Various Artist - the Chief Blues story cd2
DYEAR=2014
DGENRE=Blues
TTITLE0=Elmore James - Coming Home 
TTITLE1=Magic Sam - Blue Light Boogie 
TTITLE2=G 'Davy' Crockett - Did You Ever Love Somebody (That Didn't Love You) 
TTITLE3=Earl Hooker - Blues In D Natural 
TTITLE4=Melvin Simpson - Try And Understand 
TTITLE5=Junior Wells - The Things I'd Do For You 
TTITLE6=Elmore James - Take Me Where You Go 
TTITLE7=Lillian Offitt - Shine On 
TTITLE8=Junior Wells - Lovey Dovey Lovey One 
TTITLE9=Earl Hooker - Rockin' Wild 
TTITLE10=Magic Sam - Mr Charlie 
TTITLE11=Elmore James - Elmore's Contribution To Jazz 
TTITLE12=Junior Wells and Earl Hooker - Lazy Mule 
TTITLE13=Lillian Offitt - The Man Won't Work 
TTITLE14=Junior Wells - I Could Cry 
TTITLE15=Magic Sam - Every Night About This Time 
EXTD=
EXTT0=
EXTT1=
EXTT2=
EXTT3=
EXTT4=
EXTT5=
EXTT6=
EXTT7=
EXTT8=
EXTT9=
EXTT10=
EXTT11=
EXTT12=
EXTT13=
EXTT14=
EXTT15=
PLAYORDER=
